<svg width="138" height="100" viewBox="0 0 138 100" fill="none" xmlns="http://www.w3.org/2000/svg">
<path d="M35.8605 6.18026C35.8605 9.31738 33.3174 11.8605 30.1803 11.8605C27.0431 11.8605 24.5 9.31738 24.5 6.18026C24.5 3.04314 27.0431 0.5 30.1803 0.5C33.3174 0.5 35.8605 3.04314 35.8605 6.18026Z" fill="#121212" stroke="#121212"/>
<path d="M61.3537 30.1287C61.3537 33.2659 58.8105 35.809 55.6734 35.809C52.5363 35.809 49.9932 33.2659 49.9932 30.1287C49.9932 26.9916 52.5363 24.4485 55.6734 24.4485C58.8105 24.4485 61.3537 26.9916 61.3537 30.1287Z" fill="#121212" stroke="#121212"/>
<path d="M86.8478 6.18026C86.8478 9.31738 84.3047 11.8605 81.1676 11.8605C78.0304 11.8605 75.4873 9.31738 75.4873 6.18026C75.4873 3.04314 78.0304 0.5 81.1676 0.5C84.3047 0.5 86.8478 3.04314 86.8478 6.18026Z" fill="#121212" stroke="#121212"/>
<path d="M113.5 54.0772C113.5 57.2144 110.957 59.7575 107.82 59.7575C104.683 59.7575 102.14 57.2144 102.14 54.0772C102.14 50.9401 104.683 48.397 107.82 48.397C110.957 48.397 113.5 50.9401 113.5 54.0772Z" fill="#121212" stroke="#121212"/>
<path d="M61.3537 6.18026C61.3537 9.31738 58.8105 11.8605 55.6734 11.8605C52.5363 11.8605 49.9932 9.31738 49.9932 6.18026C49.9932 3.04314 52.5363 0.5 55.6734 0.5C58.8105 0.5 61.3537 3.04314 61.3537 6.18026Z" fill="#121212" stroke="#121212"/>
<path d="M86.8478 28.5837C86.8478 31.7208 84.3047 34.264 81.1676 34.264C78.0304 34.264 75.4873 31.7208 75.4873 28.5837C75.4873 25.4466 78.0304 22.9034 81.1676 22.9034C84.3047 22.9034 86.8478 25.4466 86.8478 28.5837Z" fill="#121212" stroke="#121212"/>
<path d="M86.8478 54.0772C86.8478 57.2144 84.3047 59.7575 81.1676 59.7575C78.0304 59.7575 75.4873 57.2144 75.4873 54.0772C75.4873 50.9401 78.0304 48.397 81.1676 48.397C84.3047 48.397 86.8478 50.9401 86.8478 54.0772Z" fill="#121212" stroke="#121212"/>
<path d="M61.3537 54.0772C61.3537 57.2144 58.8105 59.7575 55.6734 59.7575C52.5363 59.7575 49.9932 57.2144 49.9932 54.0772C49.9932 50.9401 52.5363 48.397 55.6734 48.397C58.8105 48.397 61.3537 50.9401 61.3537 54.0772Z" fill="#121212" stroke="#121212"/>
<path d="M35.8605 30.1287C35.8605 33.2659 33.3174 35.809 30.1803 35.809C27.0431 35.809 24.5 33.2659 24.5 30.1287C24.5 26.9916 27.0431 24.4485 30.1803 24.4485C33.3174 24.4485 35.8605 26.9916 35.8605 30.1287Z" fill="#121212" stroke="#121212"/>
<path d="M35.8605 54.0772C35.8605 57.2144 33.3174 59.7575 30.1803 59.7575C27.0431 59.7575 24.5 57.2144 24.5 54.0772C24.5 50.9401 27.0431 48.397 30.1803 48.397C33.3174 48.397 35.8605 50.9401 35.8605 54.0772Z" fill="#121212" stroke="#121212"/>
<line x1="31" y1="57" x2="31" y2="6" stroke="#121212" stroke-width="3"/>
<path d="M55.7988 55.2626L30.1949 7.71856" stroke="#121212" stroke-width="3"/>
<line x1="55.8857" y1="53.3896" x2="80.993" y2="4.72004" stroke="#121212" stroke-width="3"/>
<line x1="82" y1="56.25" x2="82" y2="5.25" stroke="#121212" stroke-width="3"/>
<line x1="78.75" y1="55.5998" x2="107.25" y2="55.5998" stroke="#121212" stroke-width="3"/>
<path d="M1.51705 75.803H6.06818L10.875 87.5302H11.0795L15.8864 75.803H20.4375V93.2575H16.858V81.8967H16.7131L12.196 93.1723H9.75852L5.24148 81.8541H5.09659V93.2575H1.51705V75.803ZM23.478 93.2575V75.803H27.1683V90.2149H34.6513V93.2575H23.478ZM46.3402 75.803V93.2575H42.6499V75.803H46.3402ZM52.9389 85.6893V93.2575H49.3082V80.1666H52.7685V82.4763H52.9219C53.2116 81.7149 53.6974 81.1126 54.3793 80.6694C55.0611 80.2206 55.8878 79.9961 56.8594 79.9961C57.7685 79.9961 58.5611 80.195 59.2372 80.5927C59.9134 80.9905 60.4389 81.5586 60.8139 82.2973C61.1889 83.0302 61.3764 83.9052 61.3764 84.9223V93.2575H57.7457V85.57C57.7514 84.7689 57.5469 84.1439 57.1321 83.695C56.7173 83.2405 56.1463 83.0132 55.419 83.0132C54.9304 83.0132 54.4986 83.1183 54.1236 83.3285C53.7543 83.5388 53.4645 83.8456 53.2543 84.249C53.0497 84.6467 52.9446 85.1268 52.9389 85.6893ZM71.2777 80.1666V82.8939H63.1982V80.1666H71.2777ZM65.0476 93.2575V79.2206C65.0476 78.2717 65.2322 77.4848 65.6016 76.8598C65.9766 76.2348 66.4879 75.766 67.1357 75.4535C67.7834 75.141 68.5192 74.9848 69.343 74.9848C69.8999 74.9848 70.4084 75.0274 70.8686 75.1126C71.3345 75.1978 71.6811 75.2746 71.9084 75.3427L71.2607 78.07C71.1186 78.0246 70.9425 77.9819 70.7322 77.9422C70.5277 77.9024 70.3175 77.8825 70.1016 77.8825C69.5675 77.8825 69.1953 78.0075 68.9851 78.2575C68.7749 78.5018 68.6697 78.8456 68.6697 79.2888V93.2575H65.0476ZM78.9418 93.5132C77.6179 93.5132 76.473 93.2319 75.5071 92.6694C74.5469 92.1013 73.8054 91.3115 73.2827 90.3001C72.7599 89.2831 72.4986 88.1041 72.4986 86.7632C72.4986 85.4109 72.7599 84.2291 73.2827 83.2177C73.8054 82.2007 74.5469 81.4109 75.5071 80.8484C76.473 80.2802 77.6179 79.9961 78.9418 79.9961C80.2656 79.9961 81.4077 80.2802 82.3679 80.8484C83.3338 81.4109 84.0781 82.2007 84.6009 83.2177C85.1236 84.2291 85.3849 85.4109 85.3849 86.7632C85.3849 88.1041 85.1236 89.2831 84.6009 90.3001C84.0781 91.3115 83.3338 92.1013 82.3679 92.6694C81.4077 93.2319 80.2656 93.5132 78.9418 93.5132ZM78.9588 90.7007C79.5611 90.7007 80.0639 90.5302 80.4673 90.1893C80.8707 89.8427 81.1747 89.3711 81.3793 88.7746C81.5895 88.178 81.6946 87.499 81.6946 86.7376C81.6946 85.9763 81.5895 85.2973 81.3793 84.7007C81.1747 84.1041 80.8707 83.6325 80.4673 83.2859C80.0639 82.9393 79.5611 82.766 78.9588 82.766C78.3509 82.766 77.8395 82.9393 77.4247 83.2859C77.0156 83.6325 76.706 84.1041 76.4957 84.7007C76.2912 85.2973 76.1889 85.9763 76.1889 86.7376C76.1889 87.499 76.2912 88.178 76.4957 88.7746C76.706 89.3711 77.0156 89.8427 77.4247 90.1893C77.8395 90.5302 78.3509 90.7007 78.9588 90.7007ZM87.7457 93.2575V80.1666H91.206V82.4763H91.3594C91.6321 81.7092 92.0866 81.1041 92.723 80.6609C93.3594 80.2177 94.1207 79.9961 95.0071 79.9961C95.9048 79.9961 96.669 80.2206 97.2997 80.6694C97.9304 81.1126 98.3509 81.7149 98.5611 82.4763H98.6974C98.9645 81.7263 99.4474 81.1268 100.146 80.678C100.851 80.2234 101.683 79.9961 102.643 79.9961C103.865 79.9961 104.857 80.3853 105.618 81.1638C106.385 81.9365 106.768 83.0331 106.768 84.4535V93.2575H103.146V85.1694C103.146 84.4422 102.953 83.8967 102.567 83.5331C102.18 83.1694 101.697 82.9876 101.118 82.9876C100.459 82.9876 99.9446 83.1978 99.5753 83.6183C99.206 84.0331 99.0213 84.5814 99.0213 85.2632V93.2575H95.5014V85.0927C95.5014 84.4507 95.3168 83.9393 94.9474 83.5586C94.5838 83.178 94.1037 82.9876 93.5071 82.9876C93.1037 82.9876 92.7401 83.0899 92.4162 83.2944C92.098 83.4933 91.8452 83.7746 91.6577 84.1382C91.4702 84.4961 91.3764 84.9166 91.3764 85.3996V93.2575H87.7457ZM113.369 93.5047C112.534 93.5047 111.79 93.3598 111.136 93.07C110.483 92.7746 109.966 92.3399 109.585 91.766C109.21 91.1865 109.023 90.4649 109.023 89.6013C109.023 88.874 109.156 88.2632 109.423 87.7689C109.69 87.2746 110.054 86.8768 110.514 86.5757C110.974 86.2746 111.497 86.0473 112.082 85.8939C112.673 85.7405 113.293 85.6325 113.94 85.57C114.702 85.4905 115.315 85.4166 115.781 85.3484C116.247 85.2746 116.585 85.1666 116.795 85.0246C117.006 84.8825 117.111 84.6723 117.111 84.3939V84.3427C117.111 83.803 116.94 83.3853 116.599 83.0899C116.264 82.7944 115.787 82.6467 115.168 82.6467C114.514 82.6467 113.994 82.7916 113.608 83.0814C113.222 83.3655 112.966 83.7234 112.841 84.1552L109.483 83.8825C109.653 83.0871 109.989 82.3996 110.489 81.82C110.989 81.2348 111.634 80.7859 112.423 80.4734C113.219 80.1552 114.139 79.9961 115.185 79.9961C115.912 79.9961 116.608 80.0814 117.273 80.2518C117.943 80.4223 118.537 80.6865 119.054 81.0444C119.577 81.4024 119.989 81.8626 120.29 82.4251C120.591 82.9819 120.741 83.6496 120.741 84.428V93.2575H117.298V91.4422H117.196C116.986 91.8513 116.705 92.2121 116.352 92.5246C116 92.8314 115.577 93.0728 115.082 93.249C114.588 93.4194 114.017 93.5047 113.369 93.5047ZM114.409 90.999C114.943 90.999 115.415 90.8939 115.824 90.6836C116.233 90.4677 116.554 90.178 116.787 89.8143C117.02 89.4507 117.136 89.0388 117.136 88.5785V87.1893C117.023 87.2632 116.866 87.3314 116.668 87.3939C116.474 87.4507 116.256 87.5047 116.011 87.5558C115.767 87.6013 115.523 87.6439 115.278 87.6836C115.034 87.7177 114.812 87.749 114.614 87.7774C114.188 87.8399 113.815 87.9393 113.497 88.0757C113.179 88.2121 112.932 88.3967 112.756 88.6297C112.58 88.8569 112.491 89.141 112.491 89.4819C112.491 89.9763 112.67 90.3541 113.028 90.6155C113.392 90.8711 113.852 90.999 114.409 90.999ZM123.558 98.1666V80.1666H127.138V82.3655H127.3C127.459 82.0132 127.689 81.6552 127.99 81.2916C128.297 80.9223 128.695 80.6155 129.183 80.3711C129.678 80.1211 130.291 79.9961 131.024 79.9961C131.979 79.9961 132.859 80.2461 133.666 80.7461C134.473 81.2405 135.118 81.9876 135.601 82.9876C136.084 83.9819 136.325 85.2291 136.325 86.7291C136.325 88.1893 136.089 89.4223 135.618 90.428C135.152 91.428 134.516 92.1865 133.709 92.7035C132.908 93.2149 132.01 93.4706 131.016 93.4706C130.311 93.4706 129.712 93.3541 129.217 93.1211C128.729 92.8882 128.328 92.5956 128.016 92.2433C127.703 91.8853 127.464 91.5246 127.3 91.1609H127.189V98.1666H123.558ZM127.112 86.7121C127.112 87.4905 127.22 88.1694 127.436 88.749C127.652 89.3285 127.964 89.7802 128.374 90.1041C128.783 90.4223 129.28 90.5814 129.865 90.5814C130.456 90.5814 130.956 90.4194 131.365 90.0956C131.774 89.766 132.084 89.3115 132.294 88.7319C132.51 88.1467 132.618 87.4734 132.618 86.7121C132.618 85.9564 132.513 85.2916 132.303 84.7177C132.092 84.1439 131.783 83.695 131.374 83.3711C130.964 83.0473 130.462 82.8853 129.865 82.8853C129.274 82.8853 128.774 83.0416 128.365 83.3541C127.962 83.6666 127.652 84.1098 127.436 84.6836C127.22 85.2575 127.112 85.9336 127.112 86.7121Z" fill="#121212"/>
</svg>
