<svg width="180" height="180" viewBox="0 0 180 180" fill="none" xmlns="http://www.w3.org/2000/svg">
<rect width="180" height="180" rx="90" fill="#0245A3"/>
<path d="M57.8605 28.1803C57.8605 31.3174 55.3174 33.8605 52.1803 33.8605C49.0431 33.8605 46.5 31.3174 46.5 28.1803C46.5 25.0431 49.0431 22.5 52.1803 22.5C55.3174 22.5 57.8605 25.0431 57.8605 28.1803Z" fill="white" stroke="white"/>
<path d="M83.3539 52.1288C83.3539 55.2659 80.8108 57.809 77.6737 57.809C74.5365 57.809 71.9934 55.2659 71.9934 52.1288C71.9934 48.9916 74.5365 46.4485 77.6737 46.4485C80.8108 46.4485 83.3539 48.9916 83.3539 52.1288Z" fill="white" stroke="white"/>
<path d="M108.848 28.1803C108.848 31.3174 106.305 33.8605 103.167 33.8605C100.03 33.8605 97.4872 31.3174 97.4872 28.1803C97.4872 25.0431 100.03 22.5 103.167 22.5C106.305 22.5 108.848 25.0431 108.848 28.1803Z" fill="white" stroke="white"/>
<path d="M135.5 76.0773C135.5 79.2144 132.957 81.7575 129.82 81.7575C126.683 81.7575 124.14 79.2144 124.14 76.0773C124.14 72.9401 126.683 70.397 129.82 70.397C132.957 70.397 135.5 72.9401 135.5 76.0773Z" fill="white" stroke="white"/>
<path d="M83.3539 28.1803C83.3539 31.3174 80.8108 33.8605 77.6737 33.8605C74.5365 33.8605 71.9934 31.3174 71.9934 28.1803C71.9934 25.0431 74.5365 22.5 77.6737 22.5C80.8108 22.5 83.3539 25.0431 83.3539 28.1803Z" fill="white" stroke="white"/>
<path d="M108.848 50.5837C108.848 53.7208 106.305 56.264 103.167 56.264C100.03 56.264 97.4872 53.7208 97.4872 50.5837C97.4872 47.4466 100.03 44.9034 103.167 44.9034C106.305 44.9034 108.848 47.4466 108.848 50.5837Z" fill="white" stroke="white"/>
<path d="M108.848 76.0773C108.848 79.2144 106.305 81.7575 103.167 81.7575C100.03 81.7575 97.4872 79.2144 97.4872 76.0773C97.4872 72.9401 100.03 70.397 103.167 70.397C106.305 70.397 108.848 72.9401 108.848 76.0773Z" fill="white" stroke="white"/>
<path d="M83.3539 76.0773C83.3539 79.2144 80.8108 81.7575 77.6737 81.7575C74.5365 81.7575 71.9934 79.2144 71.9934 76.0773C71.9934 72.9401 74.5365 70.397 77.6737 70.397C80.8108 70.397 83.3539 72.9401 83.3539 76.0773Z" fill="white" stroke="white"/>
<path d="M57.8605 52.1288C57.8605 55.2659 55.3174 57.809 52.1803 57.809C49.0431 57.809 46.5 55.2659 46.5 52.1288C46.5 48.9916 49.0431 46.4485 52.1803 46.4485C55.3174 46.4485 57.8605 48.9916 57.8605 52.1288Z" fill="white" stroke="white"/>
<path d="M57.8605 76.0773C57.8605 79.2144 55.3174 81.7575 52.1803 81.7575C49.0431 81.7575 46.5 79.2144 46.5 76.0773C46.5 72.9401 49.0431 70.397 52.1803 70.397C55.3174 70.397 57.8605 72.9401 57.8605 76.0773Z" fill="white" stroke="white"/>
<line x1="53" y1="79" x2="53" y2="28" stroke="white" stroke-width="3"/>
<path d="M77.7989 77.2626L52.195 29.7186" stroke="white" stroke-width="3"/>
<line x1="77.8859" y1="75.3896" x2="102.993" y2="26.72" stroke="white" stroke-width="3"/>
<line x1="104" y1="78.25" x2="104" y2="27.25" stroke="white" stroke-width="3"/>
<line x1="100.75" y1="77.5998" x2="129.25" y2="77.5998" stroke="white" stroke-width="3"/>
<path d="M23.517 92.803H28.0682L32.875 104.53H33.0795L37.8864 92.803H42.4375V110.258H38.858V98.8967H38.7131L34.196 110.172H31.7585L27.2415 98.8541H27.0966V110.258H23.517V92.803ZM45.478 110.258V92.803H49.1683V107.215H56.6513V110.258H45.478ZM68.3402 92.803V110.258H64.6499V92.803H68.3402ZM74.9389 102.689V110.258H71.3082V97.1666H74.7685V99.4763H74.9219C75.2116 98.7149 75.6974 98.1126 76.3793 97.6694C77.0611 97.2206 77.8878 96.9961 78.8594 96.9961C79.7685 96.9961 80.5611 97.195 81.2372 97.5927C81.9134 97.9905 82.4389 98.5586 82.8139 99.2973C83.1889 100.03 83.3764 100.905 83.3764 101.922V110.258H79.7457V102.57C79.7514 101.769 79.5469 101.144 79.1321 100.695C78.7173 100.24 78.1463 100.013 77.419 100.013C76.9304 100.013 76.4986 100.118 76.1236 100.329C75.7543 100.539 75.4645 100.846 75.2543 101.249C75.0497 101.647 74.9446 102.127 74.9389 102.689ZM93.2777 97.1666V99.8939H85.1982V97.1666H93.2777ZM87.0476 110.258V96.2206C87.0476 95.2717 87.2322 94.4848 87.6016 93.8598C87.9766 93.2348 88.4879 92.766 89.1357 92.4535C89.7834 92.141 90.5192 91.9848 91.343 91.9848C91.8999 91.9848 92.4084 92.0274 92.8686 92.1126C93.3345 92.1978 93.6811 92.2746 93.9084 92.3427L93.2607 95.07C93.1186 95.0246 92.9425 94.9819 92.7322 94.9422C92.5277 94.9024 92.3175 94.8825 92.1016 94.8825C91.5675 94.8825 91.1953 95.0075 90.9851 95.2575C90.7749 95.5018 90.6697 95.8456 90.6697 96.2888V110.258H87.0476ZM100.942 110.513C99.6179 110.513 98.473 110.232 97.5071 109.669C96.5469 109.101 95.8054 108.311 95.2827 107.3C94.7599 106.283 94.4986 105.104 94.4986 103.763C94.4986 102.411 94.7599 101.229 95.2827 100.218C95.8054 99.2007 96.5469 98.4109 97.5071 97.8484C98.473 97.2802 99.6179 96.9961 100.942 96.9961C102.266 96.9961 103.408 97.2802 104.368 97.8484C105.334 98.4109 106.078 99.2007 106.601 100.218C107.124 101.229 107.385 102.411 107.385 103.763C107.385 105.104 107.124 106.283 106.601 107.3C106.078 108.311 105.334 109.101 104.368 109.669C103.408 110.232 102.266 110.513 100.942 110.513ZM100.959 107.701C101.561 107.701 102.064 107.53 102.467 107.189C102.871 106.843 103.175 106.371 103.379 105.775C103.589 105.178 103.695 104.499 103.695 103.738C103.695 102.976 103.589 102.297 103.379 101.701C103.175 101.104 102.871 100.633 102.467 100.286C102.064 99.9393 101.561 99.766 100.959 99.766C100.351 99.766 99.8395 99.9393 99.4247 100.286C99.0156 100.633 98.706 101.104 98.4957 101.701C98.2912 102.297 98.1889 102.976 98.1889 103.738C98.1889 104.499 98.2912 105.178 98.4957 105.775C98.706 106.371 99.0156 106.843 99.4247 107.189C99.8395 107.53 100.351 107.701 100.959 107.701ZM109.746 110.258V97.1666H113.206V99.4763H113.359C113.632 98.7092 114.087 98.1041 114.723 97.6609C115.359 97.2177 116.121 96.9961 117.007 96.9961C117.905 96.9961 118.669 97.2206 119.3 97.6694C119.93 98.1126 120.351 98.7149 120.561 99.4763H120.697C120.964 98.7263 121.447 98.1268 122.146 97.678C122.851 97.2234 123.683 96.9961 124.643 96.9961C125.865 96.9961 126.857 97.3853 127.618 98.1638C128.385 98.9365 128.768 100.033 128.768 101.454V110.258H125.146V102.169C125.146 101.442 124.953 100.897 124.567 100.533C124.18 100.169 123.697 99.9876 123.118 99.9876C122.459 99.9876 121.945 100.198 121.575 100.618C121.206 101.033 121.021 101.581 121.021 102.263V110.258H117.501V102.093C117.501 101.451 117.317 100.939 116.947 100.559C116.584 100.178 116.104 99.9876 115.507 99.9876C115.104 99.9876 114.74 100.09 114.416 100.294C114.098 100.493 113.845 100.775 113.658 101.138C113.47 101.496 113.376 101.917 113.376 102.4V110.258H109.746ZM135.369 110.505C134.534 110.505 133.79 110.36 133.136 110.07C132.483 109.775 131.966 109.34 131.585 108.766C131.21 108.186 131.023 107.465 131.023 106.601C131.023 105.874 131.156 105.263 131.423 104.769C131.69 104.275 132.054 103.877 132.514 103.576C132.974 103.275 133.497 103.047 134.082 102.894C134.673 102.74 135.293 102.633 135.94 102.57C136.702 102.49 137.315 102.417 137.781 102.348C138.247 102.275 138.585 102.167 138.795 102.025C139.006 101.883 139.111 101.672 139.111 101.394V101.343C139.111 100.803 138.94 100.385 138.599 100.09C138.264 99.7944 137.787 99.6467 137.168 99.6467C136.514 99.6467 135.994 99.7916 135.608 100.081C135.222 100.365 134.966 100.723 134.841 101.155L131.483 100.883C131.653 100.087 131.989 99.3996 132.489 98.82C132.989 98.2348 133.634 97.7859 134.423 97.4734C135.219 97.1552 136.139 96.9961 137.185 96.9961C137.912 96.9961 138.608 97.0814 139.273 97.2518C139.943 97.4223 140.537 97.6865 141.054 98.0444C141.577 98.4024 141.989 98.8626 142.29 99.4251C142.591 99.9819 142.741 100.65 142.741 101.428V110.258H139.298V108.442H139.196C138.986 108.851 138.705 109.212 138.352 109.525C138 109.831 137.577 110.073 137.082 110.249C136.588 110.419 136.017 110.505 135.369 110.505ZM136.409 107.999C136.943 107.999 137.415 107.894 137.824 107.684C138.233 107.468 138.554 107.178 138.787 106.814C139.02 106.451 139.136 106.039 139.136 105.579V104.189C139.023 104.263 138.866 104.331 138.668 104.394C138.474 104.451 138.256 104.505 138.011 104.556C137.767 104.601 137.523 104.644 137.278 104.684C137.034 104.718 136.812 104.749 136.614 104.777C136.188 104.84 135.815 104.939 135.497 105.076C135.179 105.212 134.932 105.397 134.756 105.63C134.58 105.857 134.491 106.141 134.491 106.482C134.491 106.976 134.67 107.354 135.028 107.615C135.392 107.871 135.852 107.999 136.409 107.999ZM145.558 115.167V97.1666H149.138V99.3655H149.3C149.459 99.0132 149.689 98.6552 149.99 98.2916C150.297 97.9223 150.695 97.6155 151.183 97.3711C151.678 97.1211 152.291 96.9961 153.024 96.9961C153.979 96.9961 154.859 97.2461 155.666 97.7461C156.473 98.2405 157.118 98.9876 157.601 99.9876C158.084 100.982 158.325 102.229 158.325 103.729C158.325 105.189 158.089 106.422 157.618 107.428C157.152 108.428 156.516 109.186 155.709 109.704C154.908 110.215 154.01 110.471 153.016 110.471C152.311 110.471 151.712 110.354 151.217 110.121C150.729 109.888 150.328 109.596 150.016 109.243C149.703 108.885 149.464 108.525 149.3 108.161H149.189V115.167H145.558ZM149.112 103.712C149.112 104.49 149.22 105.169 149.436 105.749C149.652 106.329 149.964 106.78 150.374 107.104C150.783 107.422 151.28 107.581 151.865 107.581C152.456 107.581 152.956 107.419 153.365 107.096C153.774 106.766 154.084 106.311 154.294 105.732C154.51 105.147 154.618 104.473 154.618 103.712C154.618 102.956 154.513 102.292 154.303 101.718C154.092 101.144 153.783 100.695 153.374 100.371C152.964 100.047 152.462 99.8853 151.865 99.8853C151.274 99.8853 150.774 100.042 150.365 100.354C149.962 100.667 149.652 101.11 149.436 101.684C149.22 102.258 149.112 102.934 149.112 103.712Z" fill="white"/>
<path d="M47.2656 144.304C47.2656 143.356 47.4583 142.445 47.8438 141.57C48.0208 141.57 48.2969 141.606 48.6719 141.679C49.0469 141.742 49.4427 141.825 49.8594 141.929C49.8073 139.69 49.7812 137.502 49.7812 135.367C49.7812 133.065 49.8229 131.101 49.9062 129.476H49.8906L49.9062 129.289L47.3594 128.961C47.2031 128.325 47.099 127.799 47.0469 127.383C46.9948 126.955 46.974 126.466 46.9844 125.914C47.3177 125.539 47.8073 125.211 48.4531 124.929C49.1094 124.638 49.8125 124.419 50.5625 124.273C51.3229 124.117 52.0156 124.039 52.6406 124.039C53.8385 124.039 54.7708 124.278 55.4375 124.758C56.1146 125.226 56.5 125.976 56.5938 127.008C56.625 127.414 56.6406 127.856 56.6406 128.336C56.6406 129.919 56.5 131.794 56.2188 133.961C55.9375 136.127 55.5625 138.659 55.0938 141.554L54.9688 142.367L58.9531 142.586L60.5781 137.398C61.0677 137.377 61.625 137.414 62.25 137.508C62.8854 137.601 63.4323 137.731 63.8906 137.898C64.0781 138.388 64.25 139.169 64.4062 140.242C64.5729 141.304 64.6562 142.346 64.6562 143.367C64.6562 145.065 64.4062 146.258 63.9062 146.945C63.6562 147.278 63.3073 147.57 62.8594 147.82C62.4219 148.06 61.9583 148.242 61.4688 148.367C60.9896 148.502 60.5573 148.57 60.1719 148.57C59.5573 148.57 58.8385 148.44 58.0156 148.179C57.1927 147.909 56.3854 147.57 55.5938 147.164C54.8021 146.747 54.151 146.33 53.6406 145.914C53.1719 146.726 52.6302 147.356 52.0156 147.804C51.401 148.252 50.6354 148.508 49.7188 148.57C49.2708 148.497 48.8594 148.263 48.4844 147.867C48.1094 147.471 47.8125 146.961 47.5938 146.336C47.375 145.711 47.2656 145.034 47.2656 144.304ZM65.5938 139.179C65.5938 137.377 65.8958 135.768 66.5 134.351C67.1042 132.935 68.0365 131.815 69.2969 130.992C70.5677 130.159 72.151 129.742 74.0469 129.742C75.0365 129.742 76.026 129.862 77.0156 130.101C78.0052 130.33 78.8438 130.716 79.5312 131.258C80.1667 131.768 80.625 132.445 80.9062 133.289C81.1979 134.122 81.3438 135.049 81.3438 136.07C81.3438 136.747 81.2865 137.44 81.1719 138.148C81.0469 138.356 80.8021 138.633 80.4375 138.976C80.0729 139.31 79.6458 139.638 79.1562 139.961C78.6667 140.284 78.1927 140.534 77.7344 140.711C77.2969 140.742 76.8438 140.758 76.375 140.758C75.5521 140.758 74.7188 140.721 73.875 140.648C73.0312 140.575 72.2917 140.492 71.6562 140.398C71.7396 141.284 72.0104 142.054 72.4688 142.711C72.9271 143.367 73.6562 143.695 74.6562 143.695C74.75 143.695 74.901 143.685 75.1094 143.664C75.7448 143.601 76.4844 143.435 77.3281 143.164C78.1823 142.883 79.0312 142.56 79.875 142.195C80.2708 142.591 80.5625 142.987 80.75 143.383C80.9375 143.778 81.0677 144.346 81.1406 145.086C80.8177 145.461 80.2917 145.919 79.5625 146.461C78.8438 147.002 77.9635 147.492 76.9219 147.929C75.8802 148.356 74.7917 148.57 73.6562 148.57C71.9479 148.57 70.4844 148.159 69.2656 147.336C68.0573 146.502 67.1406 145.377 66.5156 143.961C65.901 142.534 65.5938 140.94 65.5938 139.179ZM75.6562 135.586C75.5104 135.429 75.2656 135.31 74.9219 135.226C74.5781 135.133 74.2188 135.086 73.8438 135.086C73.5417 135.086 73.2344 135.112 72.9219 135.164C72.6198 135.216 72.4375 135.273 72.375 135.336C72.0208 136.034 71.7969 136.825 71.7031 137.711L75.875 137.304L75.6562 135.586ZM88.4375 137.961C89.0521 137.961 89.7292 138.023 90.4688 138.148C91.2188 138.273 91.9062 138.424 92.5312 138.601V138.117C92.5312 137.794 92.5208 137.435 92.5 137.039C92.4896 136.643 92.4688 136.383 92.4375 136.258C92.3438 136.08 92.0729 135.898 91.625 135.711C91.1875 135.523 90.4688 135.429 89.4688 135.429C88.8542 135.429 88.2188 135.508 87.5625 135.664C86.9167 135.81 86.1979 136.008 85.4062 136.258C84.9792 135.549 84.6354 134.877 84.375 134.242C84.125 133.596 84 132.95 84 132.304C84 132.106 84.0156 131.909 84.0469 131.711C85.7344 130.398 87.9167 129.742 90.5938 129.742C92.0729 129.742 93.3854 129.909 94.5312 130.242C95.6771 130.575 96.6198 131.221 97.3594 132.179C98.099 133.138 98.4688 134.497 98.4688 136.258C98.4688 137.976 98.2656 139.643 97.8594 141.258C97.4635 142.862 97.2604 143.679 97.25 143.711L99.5156 142.742C99.8177 143.065 100.083 143.461 100.312 143.929C100.552 144.388 100.703 144.919 100.766 145.523C100.62 145.836 100.302 146.237 99.8125 146.726C99.3229 147.205 98.724 147.633 98.0156 148.008C97.3073 148.383 96.5677 148.57 95.7969 148.57C94.9323 148.57 94.276 148.315 93.8281 147.804C93.3906 147.294 93.1719 146.633 93.1719 145.82C93.1719 145.362 93.2396 144.898 93.375 144.429L92.9062 144.289C92.6146 145.935 91.9948 147.06 91.0469 147.664C90.099 148.268 89.0521 148.57 87.9062 148.57C87.1562 148.57 86.4323 148.362 85.7344 147.945C85.0365 147.518 84.4688 146.903 84.0312 146.101C83.5938 145.289 83.375 144.341 83.375 143.258C83.375 141.528 83.8073 140.216 84.6719 139.32C85.5365 138.414 86.7917 137.961 88.4375 137.961ZM90.2188 143.914C90.4792 143.862 90.7865 143.716 91.1406 143.476C91.5052 143.237 91.8281 142.95 92.1094 142.617C92.3906 142.284 92.5573 141.966 92.6094 141.664L92.5156 141.289C91.9635 141.216 91.375 141.179 90.75 141.179C90.2188 141.179 89.8542 141.221 89.6562 141.304C89.3229 141.679 89.1562 142.096 89.1562 142.554C89.1562 142.888 89.2396 143.19 89.4062 143.461C89.5833 143.731 89.8542 143.883 90.2188 143.914ZM101.609 139.242C101.609 137.659 101.828 136.143 102.266 134.695C102.714 133.247 103.411 132.06 104.359 131.133C105.318 130.205 106.521 129.742 107.969 129.742C109.594 129.742 111.146 130.258 112.625 131.289L112.875 131.133C112.844 129.914 112.693 128.81 112.422 127.82L109.25 127.617C109.104 127.429 108.99 127.153 108.906 126.789C108.823 126.414 108.781 126.028 108.781 125.633C108.781 125.101 108.844 124.643 108.969 124.258C109.594 123.81 110.396 123.471 111.375 123.242C112.354 123.013 113.333 122.898 114.312 122.898C115.396 122.898 116.214 123.127 116.766 123.586C117.318 124.034 117.688 124.716 117.875 125.633C118.073 126.539 118.172 127.799 118.172 129.414C118.172 131.539 118.083 133.95 117.906 136.648C117.729 139.346 117.5 141.549 117.219 143.258L117.156 143.523L118.969 142.742C119.271 143.065 119.536 143.461 119.766 143.929C120.005 144.388 120.156 144.919 120.219 145.523C120.073 145.836 119.755 146.237 119.266 146.726C118.776 147.205 118.177 147.633 117.469 148.008C116.76 148.383 116.021 148.57 115.25 148.57C114.385 148.57 113.719 148.315 113.25 147.804C112.792 147.284 112.562 146.622 112.562 145.82C112.562 145.612 112.615 145.185 112.719 144.539C112.833 143.893 112.927 143.445 113 143.195L112.531 143.054C112 144.919 111.297 146.304 110.422 147.211C109.547 148.117 108.464 148.57 107.172 148.57C105.786 148.57 104.677 148.112 103.844 147.195C103.021 146.268 102.443 145.106 102.109 143.711C101.776 142.315 101.609 140.825 101.609 139.242ZM112.328 138.961C112.391 138.586 112.422 138.148 112.422 137.648C112.422 137.325 112.406 137.018 112.375 136.726C112.354 136.435 112.328 136.226 112.297 136.101C111.88 135.799 111.406 135.586 110.875 135.461C110.354 135.336 109.875 135.273 109.438 135.273C109.167 135.273 108.875 135.299 108.562 135.351C108.354 135.56 108.188 136.013 108.062 136.711C107.938 137.398 107.875 138.174 107.875 139.039C107.875 139.966 107.938 140.867 108.062 141.742C108.198 142.606 108.385 143.284 108.625 143.773C108.792 143.773 109.115 143.518 109.594 143.008C110.083 142.487 110.589 141.851 111.109 141.101C111.63 140.341 112.036 139.627 112.328 138.961ZM122.781 142.742C123.698 143.106 124.432 143.388 124.984 143.586C125.536 143.784 126.141 143.955 126.797 144.101C127.464 144.247 128.125 144.32 128.781 144.32C129.073 144.32 129.281 144.294 129.406 144.242C129.438 144.2 129.464 144.138 129.484 144.054C129.516 143.961 129.531 143.867 129.531 143.773C129.531 143.565 129.411 143.393 129.172 143.258C128.797 143.049 128.13 142.721 127.172 142.273C125.859 141.648 124.818 141.091 124.047 140.601C123.286 140.112 122.641 139.461 122.109 138.648C121.589 137.836 121.328 136.815 121.328 135.586C121.328 133.825 121.854 132.414 122.906 131.351C123.958 130.278 125.625 129.742 127.906 129.742C130.625 129.742 132.74 130.096 134.25 130.804C134.323 131.106 134.359 131.487 134.359 131.945C134.359 132.82 134.224 133.716 133.953 134.633C133.682 135.539 133.328 136.211 132.891 136.648C132.297 136.45 131.458 136.133 130.375 135.695C129.583 135.383 128.953 135.143 128.484 134.976C128.026 134.799 127.604 134.674 127.219 134.601C127.01 134.653 126.844 134.778 126.719 134.976C126.594 135.164 126.531 135.388 126.531 135.648C126.531 135.877 126.599 136.07 126.734 136.226C126.87 136.383 127.021 136.508 127.188 136.601C127.365 136.685 127.615 136.799 127.938 136.945C128.104 137.018 128.26 137.086 128.406 137.148C128.552 137.2 128.688 137.252 128.812 137.304C129.625 137.648 130.266 137.929 130.734 138.148C131.203 138.367 131.656 138.627 132.094 138.929C132.896 139.481 133.526 140.112 133.984 140.82C134.443 141.528 134.672 142.304 134.672 143.148C134.672 144.315 134.339 145.325 133.672 146.179C133.016 147.023 132.172 147.638 131.141 148.023C130.599 148.221 130.005 148.362 129.359 148.445C128.724 148.539 127.979 148.586 127.125 148.586C126.115 148.586 125.073 148.393 124 148.008C122.938 147.612 122.125 146.955 121.562 146.039C121.573 145.403 121.656 144.851 121.812 144.383C121.979 143.903 122.302 143.356 122.781 142.742Z" fill="white"/>
</svg>
