<svg width="130" height="130" viewBox="0 0 130 130" fill="none" xmlns="http://www.w3.org/2000/svg">
<rect width="130" height="130" rx="65" fill="#0245A3"/>
<path d="M29.0187 37.1795C29.0187 40.8633 25.9976 43.859 22.2593 43.859C18.521 43.859 15.5 40.8633 15.5 37.1795C15.5 33.4957 18.521 30.5 22.2593 30.5C25.9976 30.5 29.0187 33.4957 29.0187 37.1795Z" fill="white" stroke="white"/>
<path d="M57.5347 65C57.5347 68.6838 54.5137 71.6795 50.7753 71.6795C47.037 71.6795 44.016 68.6838 44.016 65C44.016 61.3162 47.037 58.3205 50.7753 58.3205C54.5137 58.3205 57.5347 61.3162 57.5347 65Z" fill="white" stroke="white"/>
<path d="M86.0511 37.1795C86.0511 40.8633 83.0301 43.859 79.2918 43.859C75.5535 43.859 72.5325 40.8633 72.5325 37.1795C72.5325 33.4957 75.5535 30.5 79.2918 30.5C83.0301 30.5 86.0511 33.4957 86.0511 37.1795Z" fill="white" stroke="white"/>
<path d="M114.5 92.8205C114.5 96.5043 111.479 99.5 107.741 99.5C104.002 99.5 100.981 96.5043 100.981 92.8205C100.981 89.1367 104.002 86.141 107.741 86.141C111.479 86.141 114.5 89.1367 114.5 92.8205Z" fill="white" stroke="white"/>
<path d="M57.5347 37.1795C57.5347 40.8633 54.5137 43.859 50.7753 43.859C47.037 43.859 44.016 40.8633 44.016 37.1795C44.016 33.4957 47.037 30.5 50.7753 30.5C54.5137 30.5 57.5347 33.4957 57.5347 37.1795Z" fill="white" stroke="white"/>
<path d="M86.0511 63.2051C86.0511 66.8889 83.0301 69.8846 79.2918 69.8846C75.5535 69.8846 72.5325 66.8889 72.5325 63.2051C72.5325 59.5213 75.5535 56.5256 79.2918 56.5256C83.0301 56.5256 86.0511 59.5213 86.0511 63.2051Z" fill="white" stroke="white"/>
<path d="M86.0511 92.8205C86.0511 96.5043 83.0301 99.5 79.2918 99.5C75.5535 99.5 72.5325 96.5043 72.5325 92.8205C72.5325 89.1367 75.5535 86.141 79.2918 86.141C83.0301 86.141 86.0511 89.1367 86.0511 92.8205Z" fill="white" stroke="white"/>
<path d="M57.5347 92.8205C57.5347 96.5043 54.5137 99.5 50.7753 99.5C47.037 99.5 44.016 96.5043 44.016 92.8205C44.016 89.1367 47.037 86.141 50.7753 86.141C54.5137 86.141 57.5347 89.1367 57.5347 92.8205Z" fill="white" stroke="white"/>
<path d="M29.0187 65C29.0187 68.6838 25.9976 71.6795 22.2593 71.6795C18.521 71.6795 15.5 68.6838 15.5 65C15.5 61.3162 18.521 58.3205 22.2593 58.3205C25.9976 58.3205 29.0187 61.3162 29.0187 65Z" fill="white" stroke="white"/>
<path d="M29.0187 92.8205C29.0187 96.5043 25.9976 99.5 22.2593 99.5C18.521 99.5 15.5 96.5043 15.5 92.8205C15.5 89.1367 18.521 86.141 22.2593 86.141C25.9976 86.141 29.0187 89.1367 29.0187 92.8205Z" fill="white" stroke="white"/>
<line x1="21.0555" y1="96.2158" x2="21.0555" y2="36.9701" stroke="white" stroke-width="5"/>
<path d="M50.9224 94.1975L20.848 38.9665" stroke="white" stroke-width="5"/>
<line y1="-2.5" x2="63.7677" y2="-2.5" transform="matrix(0.462476 -0.886632 0.890764 0.454466 52.5905 92.8205)" stroke="white" stroke-width="5"/>
<line x1="78.1031" y1="95.3445" x2="78.1031" y2="36.0988" stroke="white" stroke-width="5"/>
<line x1="77.8808" y1="93.8317" x2="111.357" y2="93.8317" stroke="white" stroke-width="5"/>
</svg>
