<svg width="44" height="39" viewBox="0 0 44 39" fill="none" xmlns="http://www.w3.org/2000/svg">
<path d="M31.2677 6.31421H26.4043V15.2546H31.2677V6.31421ZM29.8962 13.8831H27.7758V7.69037H29.8962V13.8831Z" fill="white"/>
<path d="M37.6337 3.96448H32.7656V15.2546H37.6337V3.96448ZM36.2622 13.8831H34.1418V5.34064H36.2622V13.8831Z" fill="white"/>
<path d="M39.1367 0.533386V15.2545H44.0001V0.533386H39.1367ZM42.6286 13.8831H40.5082V1.90486H42.6286V13.8831Z" fill="white"/>
<path d="M38.6401 21.3723L24.0266 16.7523V1.43206C24.0266 1.25081 23.9546 1.07698 23.8264 0.94882C23.6983 0.820658 23.5245 0.748657 23.3432 0.748657C18.9662 0.753613 14.7699 2.49456 11.6749 5.58957C8.5799 8.68457 6.83895 12.8809 6.83399 17.2579C6.83496 18.1661 6.91167 19.0726 7.06335 19.9681C6.63445 20.2565 6.27504 20.6367 6.01113 21.0812C5.74722 21.5256 5.58541 22.0232 5.53741 22.5378H3.89444C3.38201 22.5384 2.87472 22.6401 2.40159 22.8369C1.92846 23.0337 1.49876 23.3218 1.13707 23.6848C0.775374 24.0478 0.488781 24.4785 0.293676 24.9524C0.0985709 25.4262 -0.00121946 25.9339 1.12462e-05 26.4463V34.5769C0.0012517 35.6089 0.412105 36.5983 1.14232 37.3276C1.87253 38.057 2.86239 38.4666 3.89444 38.4666H20.3709C21.4021 38.4654 22.3908 38.0552 23.12 37.326C23.8492 36.5968 24.2594 35.6081 24.2606 34.5769V33.739C27.6109 33.5629 30.8272 32.3663 33.4778 30.3098C36.1284 28.2532 38.0866 25.4351 39.0895 22.2336C39.1425 22.0598 39.1251 21.8721 39.041 21.711C38.957 21.5499 38.813 21.4282 38.6401 21.3723ZM9.00589 20.7638H15.2548C15.7546 20.7699 16.2362 20.9529 16.614 21.2802C16.9919 21.6075 17.2416 22.058 17.319 22.5519H6.92761C7.00359 22.0548 7.25487 21.6014 7.63602 21.2734C8.01718 20.9455 8.50308 20.7647 9.00589 20.7638ZM22.8892 34.5769C22.8879 35.2444 22.6222 35.8842 22.1502 36.3562C21.6782 36.8282 21.0384 37.0939 20.3709 37.0951H3.89444C3.2265 37.0939 2.5862 36.8283 2.11346 36.3565C1.64071 35.8846 1.37396 35.2448 1.37149 34.5769V31.202H9.52546V34.5675H14.7352V31.202H22.8892V34.5769ZM10.9016 33.1726V29.5122H13.3637V33.1913L10.9016 33.1726ZM22.8892 29.8258H14.7352V28.1408H9.52546V29.8258H1.37149V26.4463C1.37273 25.778 1.63909 25.1375 2.1121 24.6653C2.58511 24.1932 3.22613 23.928 3.89444 23.928H20.3709C21.0388 23.928 21.6793 24.1933 22.1516 24.6656C22.6239 25.1379 22.8892 25.7784 22.8892 26.4463V29.8258ZM24.2606 32.3582V26.4463C24.2607 25.4142 23.851 24.4244 23.1217 23.6942C22.3923 22.964 21.403 22.5531 20.3709 22.5519H18.7233C18.6417 21.6869 18.2407 20.8834 17.5984 20.2983C16.9562 19.7131 16.1189 19.3885 15.2501 19.3876H9.00589C8.79075 19.3889 8.57615 19.4093 8.36462 19.4485C8.2594 18.723 8.20622 17.9909 8.20547 17.2579C8.20965 13.3633 9.71286 9.61981 12.4033 6.8039C15.0937 3.98799 18.7648 2.31579 22.6551 2.13418V17.2579C22.6547 17.4018 22.6997 17.5422 22.7838 17.659C22.8678 17.7758 22.9866 17.8632 23.1232 17.9085L37.5448 22.4723C36.5373 25.2369 34.7425 27.6462 32.3819 29.4029C30.0213 31.1596 27.1982 32.1869 24.2606 32.3582Z" fill="white"/>
</svg>
