<svg width="42" height="43" viewBox="0 0 42 43" fill="none" xmlns="http://www.w3.org/2000/svg">
<path d="M21.9243 2.32304C20.1047 2.25047 19.0129 2.46817 17.994 2.68588C17.7028 2.61331 17.0478 2.68588 17.0478 3.41156C17.0478 3.77439 17.1933 4.06467 17.4117 4.28237C17.63 4.42751 19.668 5.95143 21.1237 7.47535C20.3958 7.54792 19.668 7.69306 18.8674 7.83819C17.994 5.95143 15.2282 7.69306 13.3358 7.76562C13.1174 7.76562 12.8991 7.83819 12.6807 7.83819C12.4624 6.2417 12.3168 4.64521 12.3896 3.48412C14.7915 2.10534 19.4496 1.08939 22.6521 1.08939H23.2344C23.6711 1.08939 23.7439 0.726548 23.3072 0.65398C19.3768 0.146005 15.956 0.944251 12.4624 2.32304C8.82318 3.84696 4.16501 7.40278 1.32643 14.0065C0.671378 15.8932 -1.94884 24.6739 2.70933 32.2935C6.42131 38.3892 11.2978 41.2919 17.3389 42.1628C23.3072 42.961 26.5825 42.3079 30.3672 40.5663C39.2469 36.6476 46.0158 21.9163 39.2469 11.2489C36.5539 6.31427 29.5666 1.9602 21.9243 2.32304ZM18.5034 9.21698C19.668 8.92671 20.8325 8.78157 21.9971 8.63644C23.016 9.79752 23.8895 11.1037 24.6173 12.41C23.4527 12.9905 21.8515 13.4259 21.1964 14.3693C20.9053 14.7321 20.8325 15.3127 20.8325 15.8206C18.8674 16.2561 16.9022 16.9092 15.0826 17.7074C14.4275 15.7481 13.8453 13.7888 13.4086 11.9746C15.3737 10.2329 17.63 9.94266 18.5034 9.21698ZM28.4021 32.8015C27.8926 32.8741 27.3831 32.9466 26.8736 33.0192C25.709 33.1644 24.2534 33.5998 22.8705 34.1077C22.0699 32.8741 19.9591 29.8262 18.8674 27.5041C21.0509 26.4155 24.035 25.5447 27.4559 25.327C27.747 25.835 28.0381 26.343 28.4748 26.7784C29.6394 27.9395 27.8926 29.536 28.4021 32.8015ZM15.5921 19.2313C17.2661 18.4331 19.0129 17.78 20.9053 17.3446C20.9053 17.8525 20.8325 18.288 20.6142 18.6508C20.323 19.1588 20.4686 20.7553 20.8325 21.2632C21.9243 22.9323 23.8167 21.9889 25.1996 22.5695C25.8546 22.8597 26.2913 23.2951 26.6552 23.8031C23.7439 24.0208 20.8325 24.6739 18.1395 25.9076C16.7566 23.0049 15.5921 19.2313 15.5921 19.2313ZM16.8294 26.5607C16.7566 26.6332 16.6111 26.7058 16.5383 26.7058C14.937 26.2704 13.3358 25.835 11.6618 25.5447C10.2061 25.2545 10.1333 25.327 8.45926 25.835C8.24091 25.9076 8.02255 25.9801 7.8042 26.0527C7.58585 25.4722 7.3675 24.8916 7.14915 24.2385C9.25988 22.5695 11.4434 21.1907 14.3548 19.8119C15.0098 21.9889 16.0288 24.9642 16.8294 26.5607ZM17.9212 33.3095C18.3579 32.1484 18.7218 31.3502 18.7946 30.4793C19.668 31.9307 20.687 33.4546 21.4148 34.6883C20.1775 35.2688 18.7946 36.2122 17.4117 37.1556C17.63 35.6317 17.63 34.1077 17.9212 33.3095ZM25.9274 11.5391C25.8546 11.5391 25.8546 11.6117 25.9274 11.5391C25.2723 10.5232 24.5445 9.43468 23.8167 8.4913C25.3451 8.41873 27.1647 8.4913 28.8388 8.63644C27.3103 9.14441 26.6552 10.5232 25.9274 11.5391ZM12.4624 13.1356C12.4624 13.0631 12.5352 13.0631 12.5352 13.0631C12.8991 14.8047 13.3358 16.2561 13.8453 18.288C11.7345 19.2313 8.09534 21.4809 6.42131 22.7146C6.13017 21.9889 5.83904 20.9004 5.5479 19.8119C5.91182 18.7234 6.71244 17.9251 7.73142 17.8525C9.55102 17.6348 11.1523 14.9498 12.4624 13.1356ZM4.38336 10.5232C6.34852 7.76562 8.96875 5.15318 11.4434 3.77439C11.4434 4.35494 11.589 6.09656 11.7345 7.76562C10.8611 7.83819 10.0605 7.98333 9.1871 8.0559C7.22193 9.79752 5.69347 11.8294 4.60171 14.2242C4.38336 12.6277 4.31057 11.3214 4.38336 10.5232ZM3.07325 12.6277C3.07325 12.6277 3.14603 14.2242 3.21882 15.3852C3.21882 15.3852 2.05427 16.6915 1.472 17.78C1.76314 15.6029 2.27262 14.5144 3.07325 12.6277ZM14.5003 39.9132C8.45926 38.0264 4.01944 32.9466 2.41819 27.6492C1.472 24.5288 1.18087 21.2632 1.472 17.9977C1.54479 17.9977 1.76314 18.0702 2.05427 17.9977C2.27262 17.8525 3.00046 17.3446 3.50995 16.9092V17.1269C3.14603 18.4331 2.92768 19.7393 2.92768 21.1181C3.50995 21.6986 4.09222 22.642 4.82006 23.658C4.38336 24.0208 3.43717 24.6014 3.2916 24.7465C2.70933 25.1819 2.70933 25.835 3.14603 26.2704C3.36438 26.4881 3.87387 26.4155 4.09222 26.2704C4.60171 25.835 5.03841 25.4722 5.69347 25.1093C5.91182 25.6899 6.13017 26.1978 6.34852 26.7058C6.05739 26.9961 5.91182 27.3589 5.83904 27.8669C5.62069 29.6085 7.29472 30.9873 8.67761 31.3502C8.75039 31.3502 8.75039 31.3502 8.82318 31.3502C8.89596 31.4953 8.96875 31.5679 9.04153 31.713C8.31369 32.2935 7.8042 32.8741 7.51307 33.3095C7.29472 33.5998 7.07636 33.9626 7.29472 34.0352C7.51307 34.1077 8.09534 34.0352 8.38647 33.9626C9.11431 33.8175 9.6238 33.0918 10.1333 32.8015C10.7156 33.5998 11.6617 34.6157 12.6079 35.5591C12.6807 35.7042 12.6807 35.9219 12.7535 36.0671C12.9719 36.6476 13.1902 37.2281 13.4813 37.8087C14.2092 38.1715 14.937 38.3892 15.6649 38.6069C15.1554 39.1875 14.7915 39.5503 14.5003 39.9132ZM16.0288 40.4211C16.2471 40.1309 16.4655 39.768 16.7566 39.4778C17.4845 39.9132 18.2123 40.4937 18.7946 40.784C17.8484 40.7114 16.8294 40.6388 16.0288 40.4211ZM20.6142 40.8565C20.6142 40.8565 18.2123 39.26 17.63 38.6795C18.7946 37.6636 20.7597 36.5025 22.2882 35.8494C22.8705 36.7927 24.8356 39.5503 25.6363 40.4937C24.2534 40.7114 22.2154 40.9291 20.6142 40.8565ZM30.6584 38.6069C30.2216 38.8972 28.1837 39.8406 27.3831 40.0583C26.0002 38.6069 24.8356 37.0104 23.7439 35.2688C24.9812 34.7608 26.9464 34.2529 28.766 34.0352C28.9115 34.5431 29.1299 35.0511 29.421 35.6317C29.7122 36.2122 30.0033 36.6476 30.3672 36.8653C30.5128 36.7927 30.5856 36.7202 30.7311 36.6476C30.6584 37.3733 30.6584 38.0264 30.6584 38.6069ZM30.1489 6.67711C29.7122 6.38684 29.2755 6.53197 29.421 6.96738C29.4938 7.11251 29.7849 7.40279 30.0761 7.69306C28.6204 7.25765 24.6901 6.96738 22.8705 7.18508C21.6331 5.80629 20.2503 4.13723 18.5762 3.04872C26.0002 2.61331 32.6963 5.66116 35.6804 9.28955C34.6615 8.78157 32.5507 8.0559 31.6773 7.83819C31.2406 7.40279 30.6584 7.03995 30.1489 6.67711ZM31.7501 38.0264C31.7501 37.4459 31.8229 36.6476 31.8229 35.9219C32.5507 35.3414 33.2058 34.7608 33.8608 34.1077C34.6615 34.1803 35.4621 34.3254 35.9716 34.4706C34.8798 35.8494 33.3514 37.0104 31.7501 38.0264ZM37.5 32.4387C37.3545 32.8015 36.845 33.4546 36.5539 33.7449C36.1171 33.5272 35.3893 33.3821 34.6615 33.1644C34.807 33.0192 34.8798 32.8741 35.0254 32.7289C35.3893 30.0439 34.5159 29.1731 35.6804 26.7784L35.9716 26.1978C36.6266 26.343 37.2089 26.5607 37.7184 26.7784C37.6456 27.7943 37.6456 30.9148 37.5 32.4387ZM36.4083 25.1819C36.6994 24.6014 36.9906 23.9482 37.3545 23.2951C37.4273 24.0934 37.5 24.8916 37.5728 25.6173C37.2089 25.3996 36.7722 25.2545 36.4083 25.1819ZM39.6836 26.851L39.3924 27.9395C39.1741 28.7377 38.519 30.4793 38.1551 31.2776C38.3007 30.2616 38.4462 27.7218 38.3735 27.2138C38.5918 27.2864 39.1013 26.9961 39.1741 26.7058C39.2469 26.4155 38.3007 25.9801 38.3007 25.9801C38.3007 24.6739 38.2279 23.2951 38.0095 21.9889C38.2279 21.6261 38.4462 21.3358 38.6646 21.0455C38.5918 20.2473 38.519 19.449 38.3735 18.7234C38.5918 18.7959 38.7374 18.8685 38.8829 18.8685C39.3196 18.8685 39.3196 18.5782 39.1741 18.4331C39.1013 18.3605 38.6646 18.0703 38.2279 17.78C37.5728 14.8047 36.1171 12.1197 34.0792 9.87009C34.8798 10.1604 35.8988 10.5958 36.6994 11.0312C37.2817 11.8294 39.0285 13.4985 39.9747 18.3605C40.9209 22.5695 39.9747 25.9076 39.6836 26.851Z" fill="white"/>
</svg>
