<svg width="37" height="45" viewBox="0 0 37 45" fill="none" xmlns="http://www.w3.org/2000/svg">
<path d="M5.28114 0.299988C2.35559 0.299988 0 2.65587 0 5.58181V39.4182C0 42.3441 2.35559 44.7 5.28114 44.7H36.9953V41.8043H5.54928C5.32467 41.8043 5.10756 41.775 4.89992 41.7223H36.9397C36.9731 41.7223 37 41.6954 37 41.662C37 41.6286 36.973 41.6017 36.9397 41.6017H4.53659C4.48561 41.5805 4.43747 41.5546 4.38815 41.5305H36.8893C36.7245 41.5054 36.5654 41.465 36.4129 41.4099H4.16008C4.12415 41.3878 4.09077 41.3623 4.05593 41.3388H36.2348C36.1545 41.3026 36.0765 41.2621 36.001 41.2181H3.88675C3.85858 41.1958 3.83295 41.1704 3.80569 41.147H35.8837C35.8264 41.1093 35.7717 41.0684 35.7178 41.0263H3.66999C3.64719 41.0035 3.6264 40.9788 3.60451 40.9552H35.6297C35.5842 40.9162 35.5394 40.8766 35.4968 40.8345H3.49707C3.47838 40.8116 3.46169 40.7873 3.44382 40.7638H35.4304C35.3933 40.7243 35.3556 40.6851 35.321 40.6432H3.3538C3.33821 40.6201 3.32481 40.5956 3.30994 40.5721H35.2677C35.2371 40.5321 35.2056 40.4932 35.1773 40.4514H3.23693C3.22407 40.428 3.2124 40.404 3.20018 40.3803H35.134C35.1089 40.3404 35.0833 40.3009 35.0605 40.2596H3.13941C3.12874 40.2364 3.1198 40.2121 3.10968 40.1885H35.0237C35.0033 40.1489 34.984 40.1086 34.9657 40.0678H3.06017C3.05197 40.0445 3.04449 40.0203 3.03655 39.9967H34.9341C34.9178 39.9572 34.9045 39.9164 34.8902 39.876H2.99742C2.99103 39.8526 2.98593 39.8285 2.98 39.8049H34.8643C34.8517 39.7653 34.8421 39.7246 34.8313 39.6842H2.9517C2.94714 39.6609 2.94349 39.6371 2.93948 39.6136H34.813C34.8036 39.5736 34.7945 39.5336 34.7871 39.4929H2.92019C2.91745 39.4693 2.91563 39.4455 2.91289 39.4218H34.7769C34.7705 39.3816 34.7629 39.3419 34.7585 39.3011H2.90156C2.89973 39.2776 2.89973 39.2537 2.89882 39.23H34.7539C34.7512 39.19 34.7494 39.1497 34.7475 39.1093H2.89761C2.8981 39.0854 2.89943 39.0619 2.90126 39.0382H34.7441C34.7441 39.0355 34.7435 39.0327 34.7435 39.03C34.7435 38.992 34.7472 38.9553 34.749 38.9178H2.90815C2.90997 38.8938 2.91362 38.8704 2.91636 38.8467H34.7526C34.7553 38.8063 34.7581 38.7659 34.763 38.726H2.93241C2.93605 38.7021 2.94061 38.6786 2.94508 38.6549H34.7738C34.7793 38.6146 34.7843 38.5739 34.7922 38.5342H2.96868C2.97415 38.5103 2.98099 38.4872 2.9871 38.4636H34.8087C34.8179 38.4229 34.8282 38.3828 34.8394 38.3429H3.0201C3.02739 38.3187 3.03751 38.2956 3.04599 38.2718H34.8582C34.871 38.2306 34.8872 38.1913 34.9021 38.1511H3.09084C3.10096 38.127 3.11263 38.1037 3.12339 38.08H34.9281C34.9445 38.039 34.9628 37.9991 34.9813 37.9593H3.17947C3.1916 37.9352 3.20527 37.9119 3.21813 37.8882H35.0157C35.0363 37.8474 35.0576 37.807 35.0803 37.7675H3.28551C3.30028 37.7433 3.31706 37.7201 3.33266 37.6964H35.1241C35.1494 37.6555 35.1748 37.6151 35.2024 37.5757H3.41561C3.43367 37.5513 3.45336 37.5283 3.47215 37.5046H35.2556C35.2865 37.4637 35.3175 37.4229 35.3508 37.384H3.57111C3.5929 37.3595 3.6167 37.3369 3.63941 37.3133H35.4149C35.4531 37.2718 35.4923 37.2315 35.5331 37.1926H3.76147C3.78882 37.1676 3.81801 37.1453 3.84627 37.1215H35.6109C35.6593 37.0792 35.7096 37.0394 35.7612 37.0008H3.99325C4.02863 36.975 4.0673 36.9537 4.10399 36.9297H35.8564C35.9204 36.8865 35.9867 36.8464 36.0547 36.8091H4.30427C4.35261 36.7834 4.40265 36.7606 4.45271 36.7379H36.1994C36.2974 36.6919 36.3979 36.6505 36.5024 36.6173H4.77127C5.01766 36.5416 5.27741 36.4966 5.54928 36.4966H36.9953V0.300946L5.28114 0.299988ZM27.1804 11.9698V12.7828C26.8883 12.8629 26.6644 12.9878 26.5089 13.1574C26.3581 13.3224 26.2827 13.5274 26.2827 13.7725C26.2827 14.0081 26.3464 14.2155 26.4736 14.3946C26.6008 14.569 26.8082 14.7363 27.0956 14.8965C27.2935 15.0049 27.7412 15.2123 28.4386 15.5186C28.8627 15.7025 29.1902 15.8698 29.4212 16.0206C29.6568 16.1667 29.8783 16.3505 30.0856 16.572C30.6417 17.1564 30.9197 17.8516 30.9197 18.6575C30.9197 19.2655 30.7689 19.8216 30.4673 20.3259C30.1657 20.8302 29.751 21.2261 29.2232 21.5136C28.9405 21.6644 28.6295 21.7822 28.2902 21.867C27.9556 21.9566 27.6422 22.0014 27.3501 22.0014V21.1954C27.76 21.0965 28.0546 20.9598 28.2336 20.7854C28.4174 20.6063 28.5093 20.3659 28.5093 20.0643C28.5093 19.7485 28.3679 19.4705 28.0852 19.2301C27.8967 19.0746 27.5386 18.8814 27.0108 18.6504C26.4312 18.3959 26.033 18.2145 25.8162 18.1061C25.6041 17.9977 25.3992 17.8704 25.2012 17.7243C24.3153 17.0928 23.8724 16.2515 23.8724 15.2005C23.8724 14.6632 23.9831 14.1684 24.2046 13.7159C24.426 13.2588 24.7347 12.8912 25.1306 12.6131C25.6819 12.2266 26.3652 12.0122 27.1804 11.9698ZM27.7388 12.0052C28.0216 12.024 28.2666 12.0617 28.474 12.1183C28.6813 12.1701 28.9758 12.2762 29.3575 12.4364C29.4518 12.4741 29.5295 12.493 29.5908 12.493C29.6803 12.493 29.7463 12.4623 29.7887 12.401L29.9442 12.196C30.0196 12.0924 30.1115 12.0405 30.2199 12.0405C30.3471 12.0405 30.439 12.0877 30.4956 12.1819C30.5569 12.2715 30.5875 12.4152 30.5875 12.6131V14.946C30.5875 15.0827 30.5474 15.1958 30.4673 15.2854C30.3919 15.3702 30.2929 15.4126 30.1704 15.4126C30.0762 15.4126 29.989 15.382 29.9089 15.3207C29.8665 15.2831 29.8311 15.2383 29.8029 15.1864C29.7793 15.1299 29.7557 15.038 29.7322 14.9107C29.6804 14.6798 29.5908 14.4418 29.4636 14.1967C29.3364 13.9516 29.1879 13.7325 29.0183 13.5392C28.679 13.1575 28.2525 12.9053 27.7389 12.7828L27.7388 12.0052ZM6.61097 12.1607H6.79476H9.94732H10.1877C10.395 12.1607 10.5434 12.189 10.633 12.2455C10.7555 12.3209 10.8168 12.4199 10.8168 12.5424C10.8168 12.7498 10.7037 12.8794 10.4775 12.9312C10.2937 12.9737 10.1853 13.0019 10.1523 13.0161C10.1193 13.0302 10.084 13.0585 10.0463 13.1009C9.97561 13.1857 9.94026 13.3177 9.94026 13.4968V21.8105H6.79476H6.61097C6.44133 21.8105 6.30938 21.7798 6.21514 21.7186C6.12559 21.6525 6.08083 21.5607 6.08083 21.4429C6.08083 21.2496 6.17508 21.1224 6.36358 21.0611C6.51908 21.0092 6.60861 20.9787 6.63218 20.9692C6.66044 20.9551 6.68871 20.9268 6.71698 20.8844C6.77352 20.809 6.80179 20.6888 6.80179 20.5238V13.4473C6.80179 13.2823 6.77352 13.1622 6.71698 13.0868C6.68871 13.0444 6.66044 13.0185 6.63218 13.009C6.60865 12.9948 6.51908 12.9618 6.36358 12.91C6.17508 12.8487 6.08083 12.7215 6.08083 12.5282C6.08083 12.4104 6.12561 12.3209 6.21514 12.2596C6.30938 12.1936 6.44133 12.1607 6.61097 12.1607ZM14.3298 12.1607H14.5136H17.6591V20.4673C17.6591 20.6511 17.6945 20.7831 17.7651 20.8632C17.8028 20.9104 17.8382 20.941 17.8712 20.9551C17.9042 20.9646 18.0125 20.9928 18.1963 21.0399C18.4225 21.0917 18.5356 21.2214 18.5356 21.4287C18.5356 21.5513 18.4743 21.6503 18.3518 21.7257C18.2623 21.7822 18.1138 21.8105 17.9065 21.8105H17.6662H14.5136H14.3298C14.1602 21.8105 14.0282 21.7798 13.934 21.7186C13.8444 21.6525 13.7997 21.5607 13.7997 21.4429C13.7997 21.2496 13.8939 21.1224 14.0824 21.0611C14.2379 21.0093 14.3275 20.9787 14.351 20.9692C14.3793 20.9551 14.4076 20.9268 14.4358 20.8844C14.4924 20.809 14.5206 20.6888 14.5206 20.5239V13.4473C14.5206 13.2824 14.4924 13.1622 14.4358 13.0868C14.4076 13.0444 14.3793 13.0185 14.351 13.009C14.3274 12.9948 14.2379 12.9618 14.0824 12.91C13.8939 12.8487 13.7997 12.7215 13.7997 12.5283C13.7997 12.4104 13.8445 12.3209 13.934 12.2596C14.0282 12.1936 14.1602 12.1607 14.3298 12.1607ZM18.2175 12.1607H18.4013C18.9244 12.1607 19.3697 12.1796 19.7373 12.2172C20.2839 12.269 20.7716 12.4482 21.2004 12.7545C21.8178 13.1928 22.1264 13.8173 22.1264 14.6279C22.1264 15.2925 21.9191 15.8368 21.5044 16.261C21.33 16.4401 21.125 16.5862 20.8894 16.6993C20.6585 16.8124 20.3051 16.9396 19.8291 17.081C20.2627 17.1471 20.5949 17.2201 20.8258 17.3002C21.0614 17.3803 21.2735 17.4887 21.462 17.6254C21.6599 17.7715 21.8107 17.9459 21.9144 18.1485C22.0228 18.3512 22.0769 18.5656 22.0769 18.7918V20.2552C22.0769 20.406 22.1265 20.4814 22.2254 20.4814C22.263 20.4814 22.2937 20.472 22.3173 20.4532C22.3455 20.4296 22.3832 20.3871 22.4304 20.3259C22.5482 20.1657 22.6683 20.0856 22.7909 20.0856C22.871 20.0856 22.9511 20.128 23.0312 20.2128C23.1113 20.2976 23.1514 20.3825 23.1514 20.4673C23.1514 20.6134 23.0807 20.7925 22.9393 21.0046C22.8026 21.212 22.6306 21.3981 22.4233 21.5631C22.2301 21.7186 22.0204 21.8294 21.7942 21.8953C21.568 21.966 21.3018 22.0014 20.9955 22.0014C20.3734 22.0014 19.8881 21.8246 19.5393 21.4712C19.1906 21.113 19.0163 20.6158 19.0163 19.9795V18.7918C19.0163 18.5279 19.0135 18.3747 19.009 18.3323C18.9855 18.1438 18.9194 17.9812 18.8111 17.8445C18.6744 17.6796 18.4788 17.583 18.2244 17.5547V16.7983C18.4788 16.7606 18.6603 16.6946 18.7687 16.6003C18.8629 16.5155 18.9265 16.4189 18.9595 16.3105C18.9972 16.2021 19.016 16.0418 19.016 15.8297V13.9563C19.016 13.6594 18.9571 13.4379 18.8393 13.2918C18.7262 13.1457 18.5189 13.0302 18.2173 12.9454L18.2175 12.1607ZM24.2682 18.2475C24.3719 18.2429 24.452 18.2734 24.5085 18.3394C24.5698 18.4007 24.6216 18.5114 24.664 18.6717C24.7724 19.077 24.9279 19.4564 25.1306 19.8099C25.3379 20.1633 25.5782 20.4626 25.8515 20.7077C26.1296 20.9622 26.45 21.1248 26.8129 21.1955V22.0014C26.4264 22.0014 26 21.8906 25.5335 21.6691C25.3591 21.589 25.2389 21.5372 25.173 21.5136C25.1069 21.49 25.0434 21.4782 24.9821 21.4782C24.8879 21.4782 24.8172 21.4947 24.7701 21.5277C24.7229 21.556 24.6475 21.6314 24.5439 21.754C24.4591 21.8576 24.3672 21.9095 24.2682 21.9095C24.0043 21.9095 23.8724 21.7068 23.8724 21.3015V18.7282C23.8724 18.5963 23.91 18.4855 23.9854 18.396C24.0609 18.3017 24.1551 18.2522 24.2682 18.2475ZM12.8808 18.4596C13.0127 18.4596 13.1093 18.5138 13.1706 18.6222C13.1988 18.674 13.213 18.7777 13.213 18.9332V21.8105H10.5128V21.0187C10.7437 20.9763 10.9251 20.9292 11.0571 20.8773C11.1937 20.8255 11.3233 20.7501 11.4458 20.6511C11.6438 20.4956 11.8252 20.2812 11.9901 20.0078C12.1551 19.7344 12.2894 19.4305 12.393 19.0958C12.4684 18.8366 12.5368 18.667 12.598 18.5868C12.664 18.502 12.7582 18.4596 12.8808 18.4596Z" fill="white"/>
</svg>
