<svg width="40" height="45" viewBox="0 0 40 45" fill="none" xmlns="http://www.w3.org/2000/svg">
<path fill-rule="evenodd" clip-rule="evenodd" d="M20.0907 0.681824C14.8113 0.681824 10.9094 4.37215 10.4453 8.59091L1.73206 9.94263C0.735833 10.0977 0 10.8887 0 11.8023V42.6955C0 43.6347 0.962273 44.371 1.98681 44.2125L12.8151 42.5284C13.3246 42.4483 13.8453 42.45 14.3548 42.5284L20.7698 43.5239L25.3886 44.2398C26.0679 44.3455 26.7623 44.3438 27.4415 44.2381L38.2698 42.5523C39.2661 42.3972 40 41.6045 40 40.6926V9.79112C40 8.85194 39.0377 8.11557 38.0132 8.27576L29.5942 9.59506C29.7526 5.02023 25.7451 0.721181 20.098 0.681908L20.0907 0.681824ZM20.0907 4.08921C21.6907 4.08921 23.2265 4.66364 24.3586 5.68639C25.4907 6.71084 26.1284 8.09659 26.1284 9.54375C26.1284 10.9909 25.4907 12.3784 24.3586 13.4011C23.2265 14.4238 21.6907 14.9983 20.0907 14.9983C16.7567 14.9983 14.0549 12.5557 14.0529 9.54375C14.0548 6.53184 16.7567 4.09096 20.0907 4.08921ZM38.272 9.6188C38.4003 9.59835 38.4909 9.66653 38.4909 9.79096V23.896L34.6438 28.6174C34.1513 29.2225 33.506 29.7151 32.7664 30.0561L29.8437 31.3975C28.8023 31.8765 28.1456 32.8447 28.1456 33.8998V35.3504C28.1456 35.8566 27.8041 36.3083 27.2796 36.4924L23.7626 37.7265C22.6626 38.1117 21.9381 39.0714 21.9381 40.1367V42.3219L21.0268 42.1805L16.823 41.5276V40.3907C16.823 39.4839 16.506 38.5992 15.9155 37.8662L12.9928 34.2355C12.3702 33.4634 11.3758 33.0049 10.3192 33.0049H9.58525C8.55507 33.0049 7.56637 33.3679 6.82866 34.0174L1.50964 38.693V25.9329H4.18325C5.37573 25.9329 6.50214 25.4249 7.21913 24.5641L9.17763 22.2102C9.60971 21.692 10.2852 21.3869 11.0021 21.3903L15.789 21.4056C15.9965 21.4056 16.2022 21.38 16.3984 21.3306L17.0663 22.4079C15.2493 22.609 13.6644 22.9857 12.4304 23.5073C11.6832 23.8227 11.0625 24.1908 10.5946 24.6374C10.1285 25.084 9.80966 25.6431 9.80966 26.2516C9.80966 26.9471 10.2153 27.5658 10.7946 28.0465C11.3719 28.5289 12.1399 28.9141 13.055 29.2363C14.8833 29.8806 17.3154 30.2556 19.9984 30.2556C22.6833 30.2556 25.1155 29.8789 26.9418 29.2363C27.855 28.9141 28.623 28.5272 29.2022 28.0465C29.7795 27.5641 30.1871 26.9471 30.1871 26.2516C30.1871 25.6346 29.8607 25.0687 29.3833 24.617C28.906 24.1652 28.2701 23.7971 27.506 23.48C26.2437 22.9567 24.621 22.5817 22.7682 22.3891L28.3152 13.5903C28.853 12.7516 29.2096 11.8823 29.4077 11.0062L38.272 9.6188ZM10.423 9.97846C10.5117 11.2057 10.891 12.4466 11.6268 13.6313L15.6004 20.0406L11.008 20.0253C9.81362 20.0219 8.6891 20.5281 7.9721 21.3906L6.0136 23.7446C5.58152 24.2644 4.90603 24.5696 4.18527 24.5696H1.50978V11.8024C1.50978 11.5416 1.70789 11.3286 1.98713 11.286L10.423 9.97846ZM21.9551 23.6864C23.9608 23.8415 25.6872 24.225 26.8795 24.7193C27.521 24.9852 28.0041 25.2853 28.2965 25.5597C28.5871 25.8341 28.6814 26.0557 28.6814 26.25C28.6814 26.4733 28.5607 26.729 28.1833 27.0426C27.806 27.3562 27.1909 27.6853 26.3984 27.9648C24.8116 28.5239 22.5286 28.8921 20.0023 28.8921C17.4758 28.8921 15.1929 28.5239 13.6061 27.9648C12.8137 27.6852 12.1986 27.3563 11.8212 27.0426C11.442 26.7307 11.3212 26.4733 11.3212 26.2517C11.3212 26.0591 11.4118 25.8426 11.6948 25.5733C11.9778 25.3023 12.4457 25.0074 13.0722 24.7415C14.2288 24.2523 15.9099 23.8671 17.8703 23.7017L19.2344 25.9023C19.3665 26.1171 19.6194 26.2517 19.8929 26.2517C20.1684 26.2517 20.4213 26.1205 20.5552 25.9057L21.9551 23.6864ZM38.4909 26.1938V40.6911C38.4909 40.9519 38.2927 41.1649 38.0135 41.2075L27.1851 42.8933C26.6757 42.9735 26.155 42.9735 25.6455 42.895L23.4474 42.5541V40.1337C23.4474 39.6274 23.787 39.1774 24.3097 38.9933L27.8266 37.7592C28.9266 37.374 29.655 36.4127 29.655 35.3473V33.8968C29.655 33.3513 29.9908 32.857 30.5267 32.6099L33.4493 31.2667C34.4003 30.8303 35.2248 30.1979 35.8588 29.4224L38.4909 26.1938ZM9.58307 34.3668H10.317C10.8925 34.3668 11.434 34.6157 11.7717 35.0368L14.6925 38.6674C15.0963 39.1685 15.3113 39.7719 15.3113 40.3907V41.2941L14.6095 41.185C13.9302 41.0793 13.2359 41.0793 12.5566 41.185L1.72829 42.8691C1.60188 42.8896 1.50943 42.8197 1.50943 42.6953V40.5953L7.8795 34.9906C8.3361 34.5883 8.9474 34.365 9.58325 34.365L9.58307 34.3668Z" fill="white"/>
</svg>
