<svg width="90" height="61" viewBox="0 0 90 61" fill="none" xmlns="http://www.w3.org/2000/svg">
<path d="M11.8605 6.18026C11.8605 9.31738 9.3174 11.8605 6.1803 11.8605C3.0431 11.8605 0.5 9.31738 0.5 6.18026C0.5 3.04314 3.0431 0.5 6.1803 0.5C9.3174 0.5 11.8605 3.04314 11.8605 6.18026Z" fill="white" stroke="white"/>
<path d="M37.3527 30.1295C37.3527 33.2666 34.8095 35.8097 31.6724 35.8097C28.5353 35.8097 25.9922 33.2666 25.9922 30.1295C25.9922 26.9923 28.5353 24.4492 31.6724 24.4492C34.8095 24.4492 37.3527 26.9923 37.3527 30.1295Z" fill="white" stroke="white"/>
<path d="M62.8488 6.18026C62.8488 9.31738 60.3057 11.8605 57.1686 11.8605C54.0314 11.8605 51.4883 9.31738 51.4883 6.18026C51.4883 3.04314 54.0314 0.5 57.1686 0.5C60.3057 0.5 62.8488 3.04314 62.8488 6.18026Z" fill="white" stroke="white"/>
<path d="M89.5006 54.0787C89.5006 57.2158 86.9576 59.7589 83.8206 59.7589C80.6836 59.7589 78.1406 57.2158 78.1406 54.0787C78.1406 50.9415 80.6836 48.3984 83.8206 48.3984C86.9576 48.3984 89.5006 50.9415 89.5006 54.0787Z" fill="white" stroke="white"/>
<path d="M37.3527 6.18026C37.3527 9.31738 34.8095 11.8605 31.6724 11.8605C28.5353 11.8605 25.9922 9.31738 25.9922 6.18026C25.9922 3.04314 28.5353 0.5 31.6724 0.5C34.8095 0.5 37.3527 3.04314 37.3527 6.18026Z" fill="white" stroke="white"/>
<path d="M62.8488 28.5826C62.8488 31.7197 60.3057 34.2629 57.1686 34.2629C54.0314 34.2629 51.4883 31.7197 51.4883 28.5826C51.4883 25.4455 54.0314 22.9023 57.1686 22.9023C60.3057 22.9023 62.8488 25.4455 62.8488 28.5826Z" fill="white" stroke="white"/>
<path d="M62.8488 54.0787C62.8488 57.2158 60.3057 59.7589 57.1686 59.7589C54.0314 59.7589 51.4883 57.2158 51.4883 54.0787C51.4883 50.9415 54.0314 48.3984 57.1686 48.3984C60.3057 48.3984 62.8488 50.9415 62.8488 54.0787Z" fill="white" stroke="white"/>
<path d="M37.3527 54.0787C37.3527 57.2158 34.8095 59.7589 31.6724 59.7589C28.5353 59.7589 25.9922 57.2158 25.9922 54.0787C25.9922 50.9415 28.5353 48.3984 31.6724 48.3984C34.8095 48.3984 37.3527 50.9415 37.3527 54.0787Z" fill="white" stroke="white"/>
<path d="M11.8605 30.1295C11.8605 33.2666 9.3174 35.8097 6.1803 35.8097C3.0431 35.8097 0.5 33.2666 0.5 30.1295C0.5 26.9923 3.0431 24.4492 6.1803 24.4492C9.3174 24.4492 11.8605 26.9923 11.8605 30.1295Z" fill="white" stroke="white"/>
<path d="M11.8605 54.0787C11.8605 57.2158 9.3174 59.7589 6.1803 59.7589C3.0431 59.7589 0.5 57.2158 0.5 54.0787C0.5 50.9415 3.0431 48.3984 6.1803 48.3984C9.3174 48.3984 11.8605 50.9415 11.8605 54.0787Z" fill="white" stroke="white"/>
<path d="M7 57V6" stroke="white" stroke-width="3"/>
<path d="M31.7992 55.2628L6.19531 7.71875" stroke="white" stroke-width="3"/>
<path d="M31.8867 53.3883L56.994 4.71875" stroke="white" stroke-width="3"/>
<path d="M58 56.25V5.25" stroke="white" stroke-width="3"/>
<path d="M54.75 55.6016H83.25" stroke="white" stroke-width="3"/>
</svg>
